<?xml version="1.0" encoding="UTF-8" standalone="no"?>
<svg
   xmlns:dc="http://purl.org/dc/elements/1.1/"
   xmlns:cc="http://creativecommons.org/ns#"
   xmlns:rdf="http://www.w3.org/1999/02/22-rdf-syntax-ns#"
   xmlns:svg="http://www.w3.org/2000/svg"
   xmlns="http://www.w3.org/2000/svg"
   xmlns:sodipodi="http://sodipodi.sourceforge.net/DTD/sodipodi-0.dtd"
   xmlns:inkscape="http://www.inkscape.org/namespaces/inkscape"
   width="500.25925mm"
   height="300.74619mm"
   viewBox="0 0 500.25922 300.74617"
   id="svg2362"
   version="1.1"
   inkscape:version="0.91 r13725"
   sodipodi:docname="antenna-laser-ready.svg">
  <metadata
     id="metadata3610">
    <rdf:RDF>
      <cc:Work
         rdf:about="">
        <dc:format>image/svg+xml</dc:format>
        <dc:type
           rdf:resource="http://purl.org/dc/dcmitype/StillImage" />
        <dc:title>Exported SVG</dc:title>
      </cc:Work>
    </rdf:RDF>
  </metadata>
  <defs
     id="defs3608" />
  <sodipodi:namedview
     pagecolor="#ffffff"
     bordercolor="#666666"
     borderopacity="1"
     objecttolerance="10"
     gridtolerance="10"
     guidetolerance="10"
     inkscape:pageopacity="0"
     inkscape:pageshadow="2"
     inkscape:window-width="2560"
     inkscape:window-height="1390"
     id="namedview3606"
     showgrid="false"
     inkscape:zoom="0.70710678"
     inkscape:cx="476.62031"
     inkscape:cy="1099.8319"
     inkscape:window-x="0"
     inkscape:window-y="50"
     inkscape:window-maximized="0"
     inkscape:current-layer="svg2362"
     fit-margin-top="0"
     fit-margin-left="0"
     fit-margin-right="0"
     fit-margin-bottom="0" />
  <title
     id="title2364">Exported SVG</title>
  <style
     id="style2366"><![CDATA[
polygon {
shape-rendering:crispEdges;
stroke-width:0.636142;
}
.s1 {
stroke:#000000;
stroke-width:0.304741;
stroke-linecap:round;
stroke-linejoin:round;
fill:none;
}
.s2 {
stroke:#19b219;
stroke-width:0.304741;
stroke-linecap:round;
stroke-linejoin:round;
fill:none;
}
.s3 {
stroke:#7f4c00;
stroke-width:0.304741;
stroke-linecap:round;
stroke-linejoin:round;
fill:none;
}
.s4 {
stroke:#00cc00;
stroke-width:0.304741;
stroke-linecap:round;
stroke-linejoin:round;
fill:none;
}
.s5 {
stroke:#000000;
stroke-width:0.203161;
stroke-linecap:round;
stroke-linejoin:round;
fill:none;
}
.s6 {
stroke:#ff19ff;
stroke-width:0.203161;
stroke-linecap:round;
stroke-linejoin:round;
fill:none;
}
.s7 {
stroke:#ff0000;
stroke-width:0.304741;
stroke-linecap:round;
stroke-linejoin:round;
fill:none;
}
.s8 {
stroke:#ffff00;
stroke-width:0.304741;
stroke-linecap:round;
stroke-linejoin:round;
fill:none;
}
.s9 {
stroke:#001919;
stroke-width:0.203161;
stroke-linecap:round;
stroke-linejoin:round;
fill:none;
}
.sa {
stroke:#006666;
stroke-width:0.203161;
stroke-linecap:round;
stroke-linejoin:round;
fill:none;
}
.sb {
stroke:#00ffff;
stroke-width:0.203161;
stroke-linecap:round;
stroke-linejoin:round;
fill:none;
}
.sc {
stroke:#ff0000;
stroke-width:1.625288;
stroke-linecap:round;
stroke-linejoin:round;
fill:none;
}
.sd {
stroke:#191919;
stroke-width:0.203161;
stroke-linecap:round;
stroke-linejoin:round;
fill:none;
}
.se {
stroke:#000000;
stroke-width:0.203161;
stroke-linecap:round;
stroke-linejoin:round;
stroke-dasharray:3.047,3.047;
fill:none;
}
.sf {
stroke:#000000;
stroke-width:0.609483;
stroke-linecap:round;
stroke-linejoin:round;
fill:none;
}
]]></style>
  <path
     style="fill:none;stroke:#000000;stroke-width:0.28222221;stroke-miterlimit:4;stroke-dasharray:none"
     d="M 20.206931,292.42234 50.367258,275.06161 45.402558,263.0349 88.205088,238.39713 483.9407,7.685469 481.47728,3.405819 83.216378,229.73037 40.413847,254.36814 32.507657,244.03461 2.3473329,261.39534 20.206931,292.42234 M 22.045953,285.5946 9.1750699,263.23436 31.53531,250.36347 44.406198,272.72371 22.045953,285.5946"
     class="s0"
     id="path2426"
     inkscape:connector-curvature="0" />
  <g
     id="g11344"
     transform="translate(-58.349572,-114.77678)">
    <path
       style="fill:none;stroke:#ff0000;stroke-width:0.28222221;stroke-linecap:square;stroke-miterlimit:4;stroke-dasharray:none"
       id="path8"
       class="s0"
       d="m 113.77278,373.24402 -5.98646,-10.40011 -0.60667,0.34921 5.98645,10.40011 0.60668,-0.34921"
       inkscape:connector-curvature="0" />
    <path
       style="fill:none;stroke:#ff0000;stroke-width:0.28222221;stroke-linecap:square;stroke-miterlimit:4;stroke-dasharray:none"
       id="path10"
       class="s0"
       d="m 538.43564,126.19665 -3.73377,-6.48659 -0.60667,0.34921 3.73377,6.48659 0.60667,-0.34921"
       inkscape:connector-curvature="0"
       sodipodi:nodetypes="ccccc" />
    <path
       style="fill:none;stroke:#ff0000;stroke-width:0.28222221;stroke-linecap:square;stroke-miterlimit:4;stroke-dasharray:none"
       id="path12"
       class="s0"
       d="m 306.25283,262.44963 -5.98645,-10.40011 -0.60668,0.34921 5.98646,10.40011 0.60667,-0.34921"
       inkscape:connector-curvature="0" />
    <path
       style="fill:none;stroke:#ff0000;stroke-width:0.28222221;stroke-linecap:square;stroke-miterlimit:4;stroke-dasharray:none"
       id="path14"
       class="s0"
       d="m 241.03547,299.98972 -5.98646,-10.40011 -0.60667,0.34921 5.98646,10.40011 0.60667,-0.34921"
       inkscape:connector-curvature="0" />
    <path
       style="fill:none;stroke:#ff0000;stroke-width:0.28222221;stroke-linecap:square;stroke-miterlimit:4;stroke-dasharray:none"
       id="path16"
       class="s0"
       d="m 161.42261,345.81606 0.60669,-0.34921 -5.98646,-10.40012 -0.60668,0.34922 5.98645,10.40011"
       inkscape:connector-curvature="0" />
    <path
       style="fill:none;stroke:#ff0000;stroke-width:0.28222221;stroke-linecap:square;stroke-miterlimit:4;stroke-dasharray:none"
       id="path18"
       class="s0"
       d="m 496.54018,152.9174 0.60669,-0.34922 -5.98645,-10.40011 -0.60669,0.34922 5.98645,10.40011"
       inkscape:connector-curvature="0" />
    <path
       style="fill:none;stroke:#ff0000;stroke-width:0.28222221;stroke-linecap:square;stroke-miterlimit:4;stroke-dasharray:none"
       id="path20"
       class="s0"
       d="m 455.18241,176.72355 0.60667,-0.34921 -5.98646,-10.40011 -0.60666,0.34921 5.98645,10.40011"
       inkscape:connector-curvature="0" />
    <path
       style="fill:none;stroke:#ff0000;stroke-width:0.28222221;stroke-linecap:square;stroke-miterlimit:4;stroke-dasharray:none"
       id="path22"
       class="s0"
       d="m 416.01734,199.26755 -5.98646,-10.40011 -0.60667,0.3492 5.98646,10.40012 0.60667,-0.34921"
       inkscape:connector-curvature="0" />
    <path
       style="fill:none;stroke:#ff0000;stroke-width:0.28222221;stroke-linecap:square;stroke-miterlimit:4;stroke-dasharray:none"
       id="path24"
       class="s0"
       d="m 377.84026,221.24284 -5.98646,-10.40011 -0.60667,0.34921 5.98646,10.40011 0.60667,-0.34921"
       inkscape:connector-curvature="0" />
    <path
       style="fill:none;stroke:#ff0000;stroke-width:0.28222221;stroke-linecap:square;stroke-miterlimit:4;stroke-dasharray:none"
       id="path26"
       class="s0"
       d="m 142.32975,356.8062 0.60668,-0.34921 -5.98646,-10.40011 -0.60668,0.34921 5.98646,10.40011"
       inkscape:connector-curvature="0" />
    <path
       style="fill:none;stroke:#ff0000;stroke-width:0.28222221;stroke-linecap:square;stroke-miterlimit:4;stroke-dasharray:none"
       id="path28"
       class="s0"
       d="m 341.2492,242.3052 -5.98646,-10.40011 -0.60666,0.34921 5.98646,10.40011 0.60666,-0.34921"
       inkscape:connector-curvature="0" />
    <path
       style="fill:none;stroke:#ff0000;stroke-width:0.28222221;stroke-linecap:square;stroke-miterlimit:4;stroke-dasharray:none"
       id="path30"
       class="s0"
       d="m 184.21619,332.69574 0.60668,-0.34921 -5.98646,-10.40011 -0.60667,0.34921 5.98645,10.40011"
       inkscape:connector-curvature="0" />
    <path
       style="fill:none;stroke:#ff0000;stroke-width:0.28222221;stroke-linecap:square;stroke-miterlimit:4;stroke-dasharray:none"
       id="path32"
       class="s0"
       d="m 272.85114,281.67614 -5.98645,-10.40011 -0.60668,0.34921 5.98646,10.40011 0.60667,-0.34921"
       inkscape:connector-curvature="0" />
    <path
       style="fill:none;stroke:#ff0000;stroke-width:0.28222221;stroke-linecap:square;stroke-miterlimit:4;stroke-dasharray:none"
       id="path34"
       class="s0"
       d="m 210.73648,317.43027 0.60667,-0.34921 -5.98646,-10.40011 -0.60667,0.34921 5.98646,10.40011"
       inkscape:connector-curvature="0" />
    <path
       style="fill:none;stroke:#ff0000;stroke-width:0.28222221;stroke-linecap:square;stroke-miterlimit:4;stroke-dasharray:none"
       id="path36"
       class="s0"
       d="m 134.98034,361.03663 -5.98646,-10.40011 -0.60667,0.34921 5.98646,10.40011 0.60667,-0.34921"
       inkscape:connector-curvature="0" />
  </g>
  <g
     id="g9785"
     transform="matrix(0.86667596,-0.49887158,0.49887144,0.86667596,-152.86708,84.078779)">
    <path
       sodipodi:nodetypes="cc"
       style="fill:none;stroke:#ff19ff;stroke-width:0.203161;stroke-linecap:round;stroke-linejoin:round"
       inkscape:connector-curvature="0"
       id="path2374"
       class="s6"
       d="m 604.731,258.139 2.032,-3.251" />
    <path
       style="fill:none;stroke:#ff19ff;stroke-width:0.203161;stroke-linecap:round;stroke-linejoin:round"
       inkscape:connector-curvature="0"
       id="path2624"
       class="s6"
       d="m 173.624,5 -2.032,3.657" />
    <path
       style="fill:none;stroke:#ff19ff;stroke-width:0.203161;stroke-linecap:round;stroke-linejoin:round"
       inkscape:connector-curvature="0"
       id="path2626"
       class="s6"
       d="M 606.763,254.888 400.351,135.836" />
    <path
       style="fill:none;stroke:#ff19ff;stroke-width:0.203161;stroke-linecap:round;stroke-linejoin:round"
       inkscape:connector-curvature="0"
       id="path2628"
       class="s6"
       d="M 386.536,127.709 173.624,5" />
    <path
       style="fill:none;stroke:#ff19ff;stroke-width:0.203161;stroke-linecap:round;stroke-linejoin:round"
       inkscape:connector-curvature="0"
       id="path2630"
       class="s6"
       d="m 173.624,5 5.282,1.219" />
    <path
       style="fill:none;stroke:#ff19ff;stroke-width:0.203161;stroke-linecap:round;stroke-linejoin:round"
       inkscape:connector-curvature="0"
       id="path2632"
       class="s6"
       d="m 606.763,254.888 -5.282,-1.219" />
    <path
       style="fill:none;stroke:#ff19ff;stroke-width:0.203161;stroke-linecap:round;stroke-linejoin:round"
       inkscape:connector-curvature="0"
       id="path2634"
       class="s6"
       d="m 606.763,254.888 -3.657,-4.47" />
    <path
       style="fill:none;stroke:#ff19ff;stroke-width:0.203161;stroke-linecap:round;stroke-linejoin:round"
       inkscape:connector-curvature="0"
       id="path2636"
       class="s6"
       d="m 173.624,5 3.656,4.063" />
    <path
       style="fill:none;stroke:#ff19ff;stroke-width:0.05733655;stroke-linecap:round;stroke-linejoin:round"
       id="path2242"
       class="s6"
       d="M 606.77229,254.90933 403.20533,137.48231"
       inkscape:connector-curvature="0" />
    <path
       style="fill:none;stroke:#ff19ff;stroke-width:0.05733655;stroke-linecap:round;stroke-linejoin:round"
       id="path2246"
       class="s6"
       d="m 173.63332,5.02129 3.657,4.063"
       inkscape:connector-curvature="0" />
    <path
       style="fill:none;stroke:#ff19ff;stroke-width:0.05733655;stroke-linecap:round;stroke-linejoin:round"
       id="path2252"
       class="s6"
       d="m 173.63332,5.02129 5.688,1.219"
       inkscape:connector-curvature="0" />
  </g>
  <path
     d="m 466.52235,40.118079 a 8.2930066,8.2930078 0 0 0 11.3245,3.05021 8.2930066,8.2930078 0 0 0 3.05021,-11.3245 8.2930066,8.2930078 0 0 0 -11.32449,-3.0502 8.2930066,8.2930078 0 0 0 -3.05022,11.32449"
     class="s0"
     id="path10447"
     inkscape:connector-curvature="0"
     style="fill:none;stroke:#000000;stroke-width:0.28222224;stroke-miterlimit:4;stroke-dasharray:none" />
  <path
     sodipodi:nodetypes="ccccccccccc"
     style="fill:none;stroke:#000000;stroke-width:0.28222221;stroke-miterlimit:4;stroke-dasharray:none"
     inkscape:connector-curvature="0"
     id="path9885"
     class="s0"
     d="m 480.29338,11.537639 -30.16033,17.36073 4.9647,12.02671 -42.80253,24.63777 -395.735615,230.711661 2.463427,4.27965 398.260898,-226.324551 42.80253,-24.63777 7.90619,10.33353 30.16032,-17.36073 -17.85959,-31.027" />
  <g
     id="g11410"
     transform="translate(-58.349572,-114.77678)">
    <path
       inkscape:connector-curvature="0"
       d="m 503.42667,160.26952 5.98646,10.40012 0.60667,-0.34921 -5.98646,-10.40012 -0.60667,0.34921"
       class="s0"
       id="path9887"
       style="fill:none;stroke:#ff0000;stroke-width:0.28222221;stroke-linecap:square;stroke-miterlimit:4;stroke-dasharray:none" />
    <path
       sodipodi:nodetypes="ccccc"
       inkscape:connector-curvature="0"
       d="m 78.763806,407.31689 3.733773,6.48659 0.606673,-0.34921 -3.733773,-6.48659 -0.606673,0.34921"
       class="s0"
       id="path9889"
       style="fill:none;stroke:#ff0000;stroke-width:0.28222221;stroke-linecap:square;stroke-miterlimit:4;stroke-dasharray:none" />
    <path
       inkscape:connector-curvature="0"
       d="m 310.94661,271.06391 5.98646,10.40011 0.60668,-0.34921 -5.98646,-10.40011 -0.60668,0.34921"
       class="s0"
       id="path9891"
       style="fill:none;stroke:#ff0000;stroke-width:0.28222221;stroke-linecap:square;stroke-miterlimit:4;stroke-dasharray:none" />
    <path
       inkscape:connector-curvature="0"
       d="m 376.16398,233.52382 5.98646,10.40011 0.60667,-0.34921 -5.98646,-10.40011 -0.60667,0.34921"
       class="s0"
       id="path9893"
       style="fill:none;stroke:#ff0000;stroke-width:0.28222221;stroke-linecap:square;stroke-miterlimit:4;stroke-dasharray:none" />
    <path
       inkscape:connector-curvature="0"
       d="m 455.77683,187.69748 -0.60668,0.34921 5.98646,10.40012 0.60668,-0.34922 -5.98646,-10.40011"
       class="s0"
       id="path9895"
       style="fill:none;stroke:#ff0000;stroke-width:0.28222221;stroke-linecap:square;stroke-miterlimit:4;stroke-dasharray:none" />
    <path
       inkscape:connector-curvature="0"
       d="m 120.65927,380.59614 -0.60669,0.34922 5.98645,10.40011 0.60669,-0.34922 -5.98645,-10.40011"
       class="s0"
       id="path9897"
       style="fill:none;stroke:#ff0000;stroke-width:0.28222221;stroke-linecap:square;stroke-miterlimit:4;stroke-dasharray:none" />
    <path
       inkscape:connector-curvature="0"
       d="m 162.01704,356.78999 -0.60667,0.34921 5.98646,10.40011 0.60666,-0.34921 -5.98645,-10.40011"
       class="s0"
       id="path9899"
       style="fill:none;stroke:#ff0000;stroke-width:0.28222221;stroke-linecap:square;stroke-miterlimit:4;stroke-dasharray:none" />
    <path
       inkscape:connector-curvature="0"
       d="m 201.18211,334.24599 5.98646,10.40011 0.60666,-0.3492 -5.98645,-10.40012 -0.60667,0.34921"
       class="s0"
       id="path9901"
       style="fill:none;stroke:#ff0000;stroke-width:0.28222221;stroke-linecap:square;stroke-miterlimit:4;stroke-dasharray:none" />
    <path
       inkscape:connector-curvature="0"
       d="m 239.35919,312.2707 5.98646,10.40011 0.60667,-0.34921 -5.98646,-10.40011 -0.60667,0.34921"
       class="s0"
       id="path9903"
       style="fill:none;stroke:#ff0000;stroke-width:0.28222221;stroke-linecap:square;stroke-miterlimit:4;stroke-dasharray:none" />
    <path
       inkscape:connector-curvature="0"
       d="m 474.8697,176.70734 -0.60668,0.34921 5.98646,10.40011 0.60667,-0.34921 -5.98645,-10.40011"
       class="s0"
       id="path9905"
       style="fill:none;stroke:#ff0000;stroke-width:0.28222221;stroke-linecap:square;stroke-miterlimit:4;stroke-dasharray:none" />
    <path
       inkscape:connector-curvature="0"
       d="m 275.95025,291.20834 5.98646,10.40011 0.60666,-0.34921 -5.98646,-10.40011 -0.60666,0.34921"
       class="s0"
       id="path9907"
       style="fill:none;stroke:#ff0000;stroke-width:0.28222221;stroke-linecap:square;stroke-miterlimit:4;stroke-dasharray:none" />
    <path
       inkscape:connector-curvature="0"
       d="m 432.98326,200.8178 -0.60668,0.34921 5.98646,10.40011 0.60667,-0.34921 -5.98645,-10.40011"
       class="s0"
       id="path9909"
       style="fill:none;stroke:#ff0000;stroke-width:0.28222221;stroke-linecap:square;stroke-miterlimit:4;stroke-dasharray:none" />
    <path
       inkscape:connector-curvature="0"
       d="m 344.34831,251.8374 5.98645,10.40011 0.60668,-0.34921 -5.98646,-10.40011 -0.60667,0.34921"
       class="s0"
       id="path9911"
       style="fill:none;stroke:#ff0000;stroke-width:0.28222221;stroke-linecap:square;stroke-miterlimit:4;stroke-dasharray:none" />
    <path
       inkscape:connector-curvature="0"
       d="m 406.46297,216.08327 -0.60667,0.34921 5.98646,10.40011 0.60667,-0.34921 -5.98646,-10.40011"
       class="s0"
       id="path9913"
       style="fill:none;stroke:#ff0000;stroke-width:0.28222221;stroke-linecap:square;stroke-miterlimit:4;stroke-dasharray:none" />
    <path
       inkscape:connector-curvature="0"
       d="m 482.21911,172.47691 5.98646,10.40011 0.60667,-0.34921 -5.98646,-10.40011 -0.60667,0.34921"
       class="s0"
       id="path9915"
       style="fill:none;stroke:#ff0000;stroke-width:0.28222221;stroke-linecap:square;stroke-miterlimit:4;stroke-dasharray:none" />
  </g>
  <text
     xml:space="preserve"
     style="font-style:normal;font-weight:normal;font-size:2.82222223px;line-height:125%;font-family:sans-serif;letter-spacing:0px;word-spacing:0px;fill:#000000;fill-opacity:1;stroke:none;stroke-width:1px;stroke-linecap:butt;stroke-linejoin:miter;stroke-opacity:1"
     x="247.86154"
     y="8.5666866"
     id="text10581"
     sodipodi:linespacing="125%"><tspan
       sodipodi:role="line"
       id="tspan10583"
       x="247.86154"
       y="8.5666866"
       style="font-size:8.46666718px;fill:#ff00ff">50cm</tspan></text>
  <g
     id="g11361"
     transform="translate(-58.349572,-114.77678)">
    <path
       inkscape:connector-curvature="0"
       d="m 113.77278,373.24402 -5.98646,-10.40011 -0.60667,0.34921 5.98645,10.40011 0.60668,-0.34921"
       class="s0"
       id="path11363"
       style="fill:none;stroke:#ff0000;stroke-width:0.28222221;stroke-linecap:square;stroke-miterlimit:4;stroke-dasharray:none" />
    <path
       sodipodi:nodetypes="ccccc"
       inkscape:connector-curvature="0"
       d="m 538.43564,126.19665 -3.73377,-6.48659 -0.60667,0.34921 3.73377,6.48659 0.60667,-0.34921"
       class="s0"
       id="path11365"
       style="fill:none;stroke:#ff0000;stroke-width:0.28222221;stroke-linecap:square;stroke-miterlimit:4;stroke-dasharray:none" />
    <path
       inkscape:connector-curvature="0"
       d="m 306.25283,262.44963 -5.98645,-10.40011 -0.60668,0.34921 5.98646,10.40011 0.60667,-0.34921"
       class="s0"
       id="path11367"
       style="fill:none;stroke:#ff0000;stroke-width:0.28222221;stroke-linecap:square;stroke-miterlimit:4;stroke-dasharray:none" />
    <path
       inkscape:connector-curvature="0"
       d="m 241.03547,299.98972 -5.98646,-10.40011 -0.60667,0.34921 5.98646,10.40011 0.60667,-0.34921"
       class="s0"
       id="path11369"
       style="fill:none;stroke:#ff0000;stroke-width:0.28222221;stroke-linecap:square;stroke-miterlimit:4;stroke-dasharray:none" />
    <path
       inkscape:connector-curvature="0"
       d="m 161.42261,345.81606 0.60669,-0.34921 -5.98646,-10.40012 -0.60668,0.34922 5.98645,10.40011"
       class="s0"
       id="path11371"
       style="fill:none;stroke:#ff0000;stroke-width:0.28222221;stroke-linecap:square;stroke-miterlimit:4;stroke-dasharray:none" />
    <path
       inkscape:connector-curvature="0"
       d="m 496.54018,152.9174 0.60669,-0.34922 -5.98645,-10.40011 -0.60669,0.34922 5.98645,10.40011"
       class="s0"
       id="path11373"
       style="fill:none;stroke:#ff0000;stroke-width:0.28222221;stroke-linecap:square;stroke-miterlimit:4;stroke-dasharray:none" />
    <path
       inkscape:connector-curvature="0"
       d="m 455.18241,176.72355 0.60667,-0.34921 -5.98646,-10.40011 -0.60666,0.34921 5.98645,10.40011"
       class="s0"
       id="path11375"
       style="fill:none;stroke:#ff0000;stroke-width:0.28222221;stroke-linecap:square;stroke-miterlimit:4;stroke-dasharray:none" />
    <path
       inkscape:connector-curvature="0"
       d="m 416.01734,199.26755 -5.98646,-10.40011 -0.60667,0.3492 5.98646,10.40012 0.60667,-0.34921"
       class="s0"
       id="path11377"
       style="fill:none;stroke:#ff0000;stroke-width:0.28222221;stroke-linecap:square;stroke-miterlimit:4;stroke-dasharray:none" />
    <path
       inkscape:connector-curvature="0"
       d="m 377.84026,221.24284 -5.98646,-10.40011 -0.60667,0.34921 5.98646,10.40011 0.60667,-0.34921"
       class="s0"
       id="path11379"
       style="fill:none;stroke:#ff0000;stroke-width:0.28222221;stroke-linecap:square;stroke-miterlimit:4;stroke-dasharray:none" />
    <path
       inkscape:connector-curvature="0"
       d="m 142.32975,356.8062 0.60668,-0.34921 -5.98646,-10.40011 -0.60668,0.34921 5.98646,10.40011"
       class="s0"
       id="path11381"
       style="fill:none;stroke:#ff0000;stroke-width:0.28222221;stroke-linecap:square;stroke-miterlimit:4;stroke-dasharray:none" />
    <path
       inkscape:connector-curvature="0"
       d="m 341.2492,242.3052 -5.98646,-10.40011 -0.60666,0.34921 5.98646,10.40011 0.60666,-0.34921"
       class="s0"
       id="path11383"
       style="fill:none;stroke:#ff0000;stroke-width:0.28222221;stroke-linecap:square;stroke-miterlimit:4;stroke-dasharray:none" />
    <path
       inkscape:connector-curvature="0"
       d="m 184.21619,332.69574 0.60668,-0.34921 -5.98646,-10.40011 -0.60667,0.34921 5.98645,10.40011"
       class="s0"
       id="path11385"
       style="fill:none;stroke:#ff0000;stroke-width:0.28222221;stroke-linecap:square;stroke-miterlimit:4;stroke-dasharray:none" />
    <path
       inkscape:connector-curvature="0"
       d="m 272.85114,281.67614 -5.98645,-10.40011 -0.60668,0.34921 5.98646,10.40011 0.60667,-0.34921"
       class="s0"
       id="path11387"
       style="fill:none;stroke:#ff0000;stroke-width:0.28222221;stroke-linecap:square;stroke-miterlimit:4;stroke-dasharray:none" />
    <path
       inkscape:connector-curvature="0"
       d="m 210.73648,317.43027 0.60667,-0.34921 -5.98646,-10.40011 -0.60667,0.34921 5.98646,10.40011"
       class="s0"
       id="path11389"
       style="fill:none;stroke:#ff0000;stroke-width:0.28222221;stroke-linecap:square;stroke-miterlimit:4;stroke-dasharray:none" />
    <path
       inkscape:connector-curvature="0"
       d="m 134.98034,361.03663 -5.98646,-10.40011 -0.60667,0.34921 5.98646,10.40011 0.60667,-0.34921"
       class="s0"
       id="path11391"
       style="fill:none;stroke:#ff0000;stroke-width:0.28222221;stroke-linecap:square;stroke-miterlimit:4;stroke-dasharray:none" />
  </g>
  <g
     id="g11427"
     transform="translate(-58.631794,-114.56511)">
    <path
       style="fill:none;stroke:#ff0000;stroke-width:0.28222221;stroke-linecap:square;stroke-miterlimit:4;stroke-dasharray:none"
       id="path11429"
       class="s0"
       d="m 503.42667,160.26952 5.98646,10.40012 0.60667,-0.34921 -5.98646,-10.40012 -0.60667,0.34921"
       inkscape:connector-curvature="0" />
    <path
       style="fill:none;stroke:#ff0000;stroke-width:0.28222221;stroke-linecap:square;stroke-miterlimit:4;stroke-dasharray:none"
       id="path11431"
       class="s0"
       d="m 78.763806,407.31689 3.733773,6.48659 0.606673,-0.34921 -3.733773,-6.48659 -0.606673,0.34921"
       inkscape:connector-curvature="0"
       sodipodi:nodetypes="ccccc" />
    <path
       style="fill:none;stroke:#ff0000;stroke-width:0.28222221;stroke-linecap:square;stroke-miterlimit:4;stroke-dasharray:none"
       id="path11433"
       class="s0"
       d="m 310.94661,271.06391 5.98646,10.40011 0.60668,-0.34921 -5.98646,-10.40011 -0.60668,0.34921"
       inkscape:connector-curvature="0" />
    <path
       style="fill:none;stroke:#ff0000;stroke-width:0.28222221;stroke-linecap:square;stroke-miterlimit:4;stroke-dasharray:none"
       id="path11435"
       class="s0"
       d="m 376.16398,233.52382 5.98646,10.40011 0.60667,-0.34921 -5.98646,-10.40011 -0.60667,0.34921"
       inkscape:connector-curvature="0" />
    <path
       style="fill:none;stroke:#ff0000;stroke-width:0.28222221;stroke-linecap:square;stroke-miterlimit:4;stroke-dasharray:none"
       id="path11437"
       class="s0"
       d="m 455.77683,187.69748 -0.60668,0.34921 5.98646,10.40012 0.60668,-0.34922 -5.98646,-10.40011"
       inkscape:connector-curvature="0" />
    <path
       style="fill:none;stroke:#ff0000;stroke-width:0.28222221;stroke-linecap:square;stroke-miterlimit:4;stroke-dasharray:none"
       id="path11439"
       class="s0"
       d="m 120.65927,380.59614 -0.60669,0.34922 5.98645,10.40011 0.60669,-0.34922 -5.98645,-10.40011"
       inkscape:connector-curvature="0" />
    <path
       style="fill:none;stroke:#ff0000;stroke-width:0.28222221;stroke-linecap:square;stroke-miterlimit:4;stroke-dasharray:none"
       id="path11441"
       class="s0"
       d="m 162.01704,356.78999 -0.60667,0.34921 5.98646,10.40011 0.60666,-0.34921 -5.98645,-10.40011"
       inkscape:connector-curvature="0" />
    <path
       style="fill:none;stroke:#ff0000;stroke-width:0.28222221;stroke-linecap:square;stroke-miterlimit:4;stroke-dasharray:none"
       id="path11443"
       class="s0"
       d="m 201.18211,334.24599 5.98646,10.40011 0.60666,-0.3492 -5.98645,-10.40012 -0.60667,0.34921"
       inkscape:connector-curvature="0" />
    <path
       style="fill:none;stroke:#ff0000;stroke-width:0.28222221;stroke-linecap:square;stroke-miterlimit:4;stroke-dasharray:none"
       id="path11445"
       class="s0"
       d="m 239.35919,312.2707 5.98646,10.40011 0.60667,-0.34921 -5.98646,-10.40011 -0.60667,0.34921"
       inkscape:connector-curvature="0" />
    <path
       style="fill:none;stroke:#ff0000;stroke-width:0.28222221;stroke-linecap:square;stroke-miterlimit:4;stroke-dasharray:none"
       id="path11447"
       class="s0"
       d="m 474.8697,176.70734 -0.60668,0.34921 5.98646,10.40011 0.60667,-0.34921 -5.98645,-10.40011"
       inkscape:connector-curvature="0" />
    <path
       style="fill:none;stroke:#ff0000;stroke-width:0.28222221;stroke-linecap:square;stroke-miterlimit:4;stroke-dasharray:none"
       id="path11449"
       class="s0"
       d="m 275.95025,291.20834 5.98646,10.40011 0.60666,-0.34921 -5.98646,-10.40011 -0.60666,0.34921"
       inkscape:connector-curvature="0" />
    <path
       style="fill:none;stroke:#ff0000;stroke-width:0.28222221;stroke-linecap:square;stroke-miterlimit:4;stroke-dasharray:none"
       id="path11451"
       class="s0"
       d="m 432.98326,200.8178 -0.60668,0.34921 5.98646,10.40011 0.60667,-0.34921 -5.98645,-10.40011"
       inkscape:connector-curvature="0" />
    <path
       style="fill:none;stroke:#ff0000;stroke-width:0.28222221;stroke-linecap:square;stroke-miterlimit:4;stroke-dasharray:none"
       id="path11453"
       class="s0"
       d="m 344.34831,251.8374 5.98645,10.40011 0.60668,-0.34921 -5.98646,-10.40011 -0.60667,0.34921"
       inkscape:connector-curvature="0" />
    <path
       style="fill:none;stroke:#ff0000;stroke-width:0.28222221;stroke-linecap:square;stroke-miterlimit:4;stroke-dasharray:none"
       id="path11455"
       class="s0"
       d="m 406.46297,216.08327 -0.60667,0.34921 5.98646,10.40011 0.60667,-0.34921 -5.98646,-10.40011"
       inkscape:connector-curvature="0" />
    <path
       style="fill:none;stroke:#ff0000;stroke-width:0.28222221;stroke-linecap:square;stroke-miterlimit:4;stroke-dasharray:none"
       id="path11457"
       class="s0"
       d="m 482.21911,172.47691 5.98646,10.40011 0.60667,-0.34921 -5.98646,-10.40011 -0.60667,0.34921"
       inkscape:connector-curvature="0" />
  </g>
  <g
     id="g11459"
     transform="translate(-58.06735,-114.98845)">
    <path
       style="fill:none;stroke:#ff0000;stroke-width:0.28222221;stroke-linecap:square;stroke-miterlimit:4;stroke-dasharray:none"
       id="path11461"
       class="s0"
       d="m 113.77278,373.24402 -5.98646,-10.40011 -0.60667,0.34921 5.98645,10.40011 0.60668,-0.34921"
       inkscape:connector-curvature="0" />
    <path
       style="fill:none;stroke:#ff0000;stroke-width:0.28222221;stroke-linecap:square;stroke-miterlimit:4;stroke-dasharray:none"
       id="path11463"
       class="s0"
       d="m 538.43564,126.19665 -3.73377,-6.48659 -0.60667,0.34921 3.73377,6.48659 0.60667,-0.34921"
       inkscape:connector-curvature="0"
       sodipodi:nodetypes="ccccc" />
    <path
       style="fill:none;stroke:#ff0000;stroke-width:0.28222221;stroke-linecap:square;stroke-miterlimit:4;stroke-dasharray:none"
       id="path11465"
       class="s0"
       d="m 306.25283,262.44963 -5.98645,-10.40011 -0.60668,0.34921 5.98646,10.40011 0.60667,-0.34921"
       inkscape:connector-curvature="0" />
    <path
       style="fill:none;stroke:#ff0000;stroke-width:0.28222221;stroke-linecap:square;stroke-miterlimit:4;stroke-dasharray:none"
       id="path11467"
       class="s0"
       d="m 241.03547,299.98972 -5.98646,-10.40011 -0.60667,0.34921 5.98646,10.40011 0.60667,-0.34921"
       inkscape:connector-curvature="0" />
    <path
       style="fill:none;stroke:#ff0000;stroke-width:0.28222221;stroke-linecap:square;stroke-miterlimit:4;stroke-dasharray:none"
       id="path11469"
       class="s0"
       d="m 161.42261,345.81606 0.60669,-0.34921 -5.98646,-10.40012 -0.60668,0.34922 5.98645,10.40011"
       inkscape:connector-curvature="0" />
    <path
       style="fill:none;stroke:#ff0000;stroke-width:0.28222221;stroke-linecap:square;stroke-miterlimit:4;stroke-dasharray:none"
       id="path11471"
       class="s0"
       d="m 496.54018,152.9174 0.60669,-0.34922 -5.98645,-10.40011 -0.60669,0.34922 5.98645,10.40011"
       inkscape:connector-curvature="0" />
    <path
       style="fill:none;stroke:#ff0000;stroke-width:0.28222221;stroke-linecap:square;stroke-miterlimit:4;stroke-dasharray:none"
       id="path11473"
       class="s0"
       d="m 455.18241,176.72355 0.60667,-0.34921 -5.98646,-10.40011 -0.60666,0.34921 5.98645,10.40011"
       inkscape:connector-curvature="0" />
    <path
       style="fill:none;stroke:#ff0000;stroke-width:0.28222221;stroke-linecap:square;stroke-miterlimit:4;stroke-dasharray:none"
       id="path11475"
       class="s0"
       d="m 416.01734,199.26755 -5.98646,-10.40011 -0.60667,0.3492 5.98646,10.40012 0.60667,-0.34921"
       inkscape:connector-curvature="0" />
    <path
       style="fill:none;stroke:#ff0000;stroke-width:0.28222221;stroke-linecap:square;stroke-miterlimit:4;stroke-dasharray:none"
       id="path11477"
       class="s0"
       d="m 377.84026,221.24284 -5.98646,-10.40011 -0.60667,0.34921 5.98646,10.40011 0.60667,-0.34921"
       inkscape:connector-curvature="0" />
    <path
       style="fill:none;stroke:#ff0000;stroke-width:0.28222221;stroke-linecap:square;stroke-miterlimit:4;stroke-dasharray:none"
       id="path11479"
       class="s0"
       d="m 142.32975,356.8062 0.60668,-0.34921 -5.98646,-10.40011 -0.60668,0.34921 5.98646,10.40011"
       inkscape:connector-curvature="0" />
    <path
       style="fill:none;stroke:#ff0000;stroke-width:0.28222221;stroke-linecap:square;stroke-miterlimit:4;stroke-dasharray:none"
       id="path11481"
       class="s0"
       d="m 341.2492,242.3052 -5.98646,-10.40011 -0.60666,0.34921 5.98646,10.40011 0.60666,-0.34921"
       inkscape:connector-curvature="0" />
    <path
       style="fill:none;stroke:#ff0000;stroke-width:0.28222221;stroke-linecap:square;stroke-miterlimit:4;stroke-dasharray:none"
       id="path11483"
       class="s0"
       d="m 184.21619,332.69574 0.60668,-0.34921 -5.98646,-10.40011 -0.60667,0.34921 5.98645,10.40011"
       inkscape:connector-curvature="0" />
    <path
       style="fill:none;stroke:#ff0000;stroke-width:0.28222221;stroke-linecap:square;stroke-miterlimit:4;stroke-dasharray:none"
       id="path11485"
       class="s0"
       d="m 272.85114,281.67614 -5.98645,-10.40011 -0.60668,0.34921 5.98646,10.40011 0.60667,-0.34921"
       inkscape:connector-curvature="0" />
    <path
       style="fill:none;stroke:#ff0000;stroke-width:0.28222221;stroke-linecap:square;stroke-miterlimit:4;stroke-dasharray:none"
       id="path11487"
       class="s0"
       d="m 210.73648,317.43027 0.60667,-0.34921 -5.98646,-10.40011 -0.60667,0.34921 5.98646,10.40011"
       inkscape:connector-curvature="0" />
    <path
       style="fill:none;stroke:#ff0000;stroke-width:0.28222221;stroke-linecap:square;stroke-miterlimit:4;stroke-dasharray:none"
       id="path11489"
       class="s0"
       d="m 134.98034,361.03663 -5.98646,-10.40011 -0.60667,0.34921 5.98646,10.40011 0.60667,-0.34921"
       inkscape:connector-curvature="0" />
  </g>
  <text
     xml:space="preserve"
     style="font-style:normal;font-weight:normal;font-size:2.82222199px;line-height:125%;font-family:sans-serif;letter-spacing:0px;word-spacing:0px;fill:#000000;fill-opacity:1;stroke:none;stroke-width:1px;stroke-linecap:butt;stroke-linejoin:miter;stroke-opacity:1"
     x="16.763144"
     y="25.75079"
     id="text12154"
     sodipodi:linespacing="125%"><tspan
       sodipodi:role="line"
       id="tspan12156"
       x="16.763144"
       y="25.75079"
       style="font-size:8.46666622px;fill:#ff00ff">ak to sedí, stal sa zázrak a nepožulo to jednotky a NECHYTAJ ŠKÁLOVANIE :D</tspan><tspan
       sodipodi:role="line"
       x="16.763144"
       y="36.334122"
       style="font-size:8.46666622px;fill:#ff00ff"
       id="tspan12160">ak sa nestal zázrak, tak to skús trafiť, aby to bolo čo najlepších 50cm </tspan></text>
</svg>
